<svg width="4290" height="1219" xmlns="http://www.w3.org/2000/svg" xmlns:xlink="http://www.w3.org/1999/xlink" xml:space="preserve" overflow="hidden"><g transform="translate(-55 -756)"><g><path d="M1549.26 1285 1462.5 1300.07C1437.2 1303.52 1417.14 1310.19 1402.33 1320.07 1387.51 1329.95 1376.62 1345.15 1369.66 1365.66 1363.31 1384.32 1363.04 1398.36 1368.84 1407.81 1374.63 1417.25 1387.04 1421.98 1406.07 1421.98 1419.09 1421.98 1432.34 1419.2 1445.82 1413.63 1459.3 1408.07 1472.08 1400.6 1484.16 1391.22 1496.24 1381.85 1506.99 1370.99 1516.4 1358.66 1525.81 1346.33 1532.71 1333.69 1537.11 1320.76ZM3515.72 1135.08C3500.41 1135.08 3486.85 1138.04 3475.04 1143.97 3463.23 1149.89 3452.59 1157.86 3443.13 1167.88 3433.67 1177.9 3425.59 1189.29 3418.88 1202.05 3412.17 1214.82 3406.42 1228.26 3401.63 1242.38L3376.29 1316.96C3370.8 1333.1 3367.9 1347.7 3367.57 1360.78 3367.24 1373.85 3369.04 1384.96 3372.96 1394.1 3376.88 1403.24 3382.54 1410.18 3389.92 1414.9 3397.31 1419.62 3406.48 1421.98 3417.45 1421.98 3442.85 1421.98 3465.82 1411.15 3486.35 1389.5 3506.88 1367.86 3526 1330.99 3543.7 1278.91 3561.1 1227.68 3566.43 1190.91 3559.68 1168.58 3552.93 1146.25 3538.28 1135.08 3515.72 1135.08ZM1918.48 1135.08C1895.84 1135.08 1873.58 1146.22 1851.71 1168.49 1829.84 1190.76 1810.18 1227.57 1792.74 1278.91 1774.95 1331.25 1768.36 1368.18 1772.97 1389.7 1777.59 1411.22 1792.57 1421.98 1817.93 1421.98 1828.81 1421.98 1839.84 1419.59 1851.02 1414.81 1862.2 1410.04 1872.99 1403.07 1883.39 1393.9 1893.79 1384.73 1903.52 1373.6 1912.58 1360.5 1921.63 1347.41 1928.87 1332.89 1934.29 1316.96L1959.63 1242.38C1964.29 1228.7 1967.62 1215.37 1969.63 1202.39 1971.64 1189.41 1971.31 1177.91 1968.66 1167.89 1966 1157.87 1960.78 1149.89 1952.99 1143.97 1945.2 1138.04 1933.7 1135.08 1918.48 1135.08ZM3119.33 1134.32C3072.52 1134.32 3034.11 1161.92 3004.1 1217.11L3001.67 1221.83 3163.01 1221.83 3164.63 1215.67C3177.48 1161.44 3162.38 1134.32 3119.33 1134.32ZM2540.42 1077.24 2615.55 1077.24 2564.79 1332.75 2691.21 1107.68 2761.5 1107.68 2736 1330.59 2858.6 1077.24 2933.09 1077.24 2732.75 1479.81 2657 1479.81 2681.45 1239.78 2542.76 1479.81 2467.02 1479.81ZM2218.35 1077.24 2388.05 1077.24 2274 1412.85 2383.58 1412.85 2360.82 1479.81 2054.9 1479.81 2077.66 1412.85 2194.09 1412.85 2285.39 1144.21 2195.59 1144.21ZM3143.85 1068.87C3169.93 1068.87 3191.23 1073.44 3207.74 1082.58 3224.25 1091.71 3235.88 1104.42 3242.62 1120.69 3249.35 1136.96 3251.99 1156.17 3250.52 1178.32 3249.06 1200.47 3244.05 1224.11 3235.52 1249.23L3223.36 1285 2978.41 1285 2974.89 1296.03C2970.6 1310.53 2967.59 1324.05 2965.88 1336.57 2963.59 1353.26 2964.28 1367.83 2967.95 1380.28 2971.62 1392.72 2978.51 1402.4 2988.6 1409.32 2998.7 1416.24 3013.5 1419.69 3033 1419.69 3051.06 1419.69 3070.42 1416.68 3091.06 1410.64 3111.71 1404.6 3133.4 1394.68 3156.15 1380.88L3175.56 1380.88 3151.41 1451.94C3126.6 1465.58 3103.39 1475.29 3081.77 1481.06 3060.15 1486.82 3035.2 1489.71 3006.92 1489.71 2975.21 1489.71 2949.72 1484.54 2930.45 1474.21 2911.18 1463.87 2897.47 1449.09 2889.32 1429.87 2881.16 1410.64 2878.08 1388.09 2880.08 1362.22 2882.08 1336.35 2888.38 1307.82 2898.98 1276.63 2909.68 1245.13 2922.76 1216.6 2938.23 1191.04 2953.7 1165.47 2971.67 1143.67 2992.15 1125.62 3012.62 1107.57 3035.49 1093.6 3060.77 1083.71 3086.04 1073.82 3113.74 1068.87 3143.85 1068.87ZM1227.59 1068.87C1244.94 1068.87 1261.52 1071 1277.34 1075.25 1293.15 1079.5 1307.33 1086.89 1319.86 1097.42L1294.91 1170.85 1275.83 1170.85C1266.19 1162.78 1254.47 1156.19 1240.67 1151.1 1226.87 1146 1212.29 1143.45 1196.92 1143.45 1179.99 1143.45 1163.82 1147.09 1148.41 1154.38 1133.01 1161.66 1118.53 1171.61 1104.98 1184.21 1091.43 1196.81 1079.43 1211.35 1068.97 1227.83 1058.52 1244.32 1050.22 1261.6 1044.08 1279.67L976.066 1479.81 896.922 1479.81 1033.74 1077.24 1106.28 1077.24 1088.65 1135.05 1090.94 1132.32C1092.07 1131.06 1093.31 1129.77 1094.66 1128.45 1105.43 1117.82 1117.83 1108.08 1131.85 1099.22 1145.87 1090.37 1161.02 1083.09 1177.31 1077.41 1193.59 1071.72 1210.35 1068.87 1227.59 1068.87ZM1554.48 1068.11C1601.56 1068.11 1632.56 1082.06 1647.49 1109.95 1662.41 1137.84 1661.59 1176.15 1645.03 1224.88L1558.4 1479.81 1484.14 1479.81 1494.84 1443.53 1488.02 1449.38C1475.37 1459.64 1461.48 1467.97 1446.35 1474.36 1422.14 1484.59 1397.74 1489.71 1373.15 1489.71 1334.11 1489.71 1306.6 1479.25 1290.61 1458.33 1274.63 1437.41 1272.97 1408.3 1285.65 1370.99 1298.1 1334.35 1317.94 1305.37 1345.16 1284.05 1372.38 1262.73 1407.85 1248.62 1451.56 1241.73L1567.04 1223.74 1568.72 1218.79C1578.9 1188.86 1580.5 1167.93 1573.53 1156.01 1566.56 1144.09 1551.26 1138.12 1527.65 1138.12 1507.24 1138.12 1486.8 1140.93 1466.32 1146.55 1445.83 1152.18 1422.84 1162.56 1397.33 1177.7L1378.74 1177.7 1402.71 1107.16C1430.72 1093.2 1456.38 1083.2 1479.69 1077.17 1503.01 1071.13 1527.94 1068.11 1554.48 1068.11ZM3431.09 925.045 3509.48 925.045 3447.69 1106.85 3447.82 1106.74C3458.47 1098.38 3470.91 1091.05 3485.14 1084.75 3507.91 1074.67 3529.83 1069.63 3550.89 1069.63 3578.38 1069.63 3599.19 1076.01 3613.3 1088.77 3627.42 1101.52 3636.52 1117.76 3640.61 1137.48 3644.69 1157.21 3644.91 1179.36 3641.26 1203.93 3637.61 1228.51 3631.73 1252.74 3623.61 1276.63 3614.86 1302.38 3604.11 1327.89 3591.36 1353.15 3578.61 1378.42 3563.21 1401.16 3545.16 1421.38 3527.11 1441.6 3506.37 1458.05 3482.94 1470.71 3459.5 1483.37 3433.05 1489.71 3403.57 1489.71 3393.69 1489.71 3384.06 1488.35 3374.67 1485.63 3365.28 1482.92 3356.95 1479.13 3349.7 1474.28 3342.45 1469.42 3336.45 1463.4 3331.7 1456.22L3329.59 1452.69 3318.92 1479.81 3242.55 1479.81ZM2067.48 925.045 2145.86 925.045 1957.33 1479.81 1880.85 1479.81 1888.68 1452.44 1883.68 1456.24C1873.82 1463.39 1863.23 1469.45 1851.9 1474.41 1840.58 1479.37 1829.23 1483.16 1817.86 1485.78 1806.49 1488.4 1795.8 1489.71 1785.78 1489.71 1756.21 1489.71 1734.22 1483.5 1719.8 1471.07 1705.39 1458.65 1696.25 1442.46 1692.39 1422.48 1688.53 1402.51 1688.92 1380 1693.56 1354.94 1698.2 1329.88 1705.14 1303.78 1714.36 1276.63 1722.28 1253.35 1732.7 1229.53 1745.65 1205.17 1758.59 1180.81 1773.85 1158.64 1791.42 1138.67 1808.98 1118.69 1829.2 1102.2 1852.08 1089.17 1874.95 1076.15 1900.18 1069.63 1927.78 1069.63 1948.77 1069.63 1967.22 1074.68 1983.15 1084.76 1993.1 1091.06 2000.55 1098.39 2005.52 1106.75L2005.65 1106.99ZM2404.96 895.366C2420.87 895.366 2432.64 901.154 2440.29 912.732 2447.93 924.309 2449.05 938.053 2443.64 953.963 2438.08 970.308 2427.53 984.288 2411.97 995.901 2396.41 1007.51 2380.71 1013.32 2364.88 1013.32 2348.96 1013.32 2337.18 1007.53 2329.54 995.96 2321.9 984.387 2320.86 970.388 2326.45 953.963 2331.88 937.974 2342.33 924.21 2357.79 912.672 2373.25 901.135 2388.97 895.366 2404.96 895.366Z" stroke="#000000" stroke-width="3" stroke-linecap="butt" stroke-linejoin="round" stroke-miterlimit="10" stroke-opacity="1" fill="#00A7E9" fill-rule="evenodd" fill-opacity="1"/><text fill="#000000" fill-opacity="0" font-family="Arial,Arial_MSFontService,sans-serif" font-size="594.341" direction="ltr" writing-mode="lr-tb" x="896.922" y="1415.41">radiweb</text><text fill="#00A7E9" fill-opacity="1" font-family="D2Coding,D2Coding_MSFontService,sans-serif" font-style="normal" font-variant="normal" font-weight="700" font-stretch="normal" font-size="138" text-anchor="start" direction="ltr" writing-mode="lr-tb" unicode-bidi="normal" text-decoration="none" transform="matrix(1 0 0 1 539.974 1854)">RADIWEB</text><text fill="#747474" fill-opacity="1" font-family="D2Coding,D2Coding_MSFontService,sans-serif" font-style="oblique" font-variant="normal" font-weight="400" font-stretch="normal" font-size="138" text-anchor="start" direction="ltr" writing-mode="lr-tb" unicode-bidi="normal" text-decoration="none" transform="matrix(1 0 0 1 1110.03 1854)">A feature</text><text fill="#747474" fill-opacity="1" font-family="D2Coding,D2Coding_MSFontService,sans-serif" font-style="oblique" font-variant="normal" font-weight="400" font-stretch="normal" font-size="138" text-anchor="start" direction="ltr" writing-mode="lr-tb" unicode-bidi="normal" text-decoration="none" transform="matrix(1 0 0 1 1728.78 1854)">-</text><text fill="#747474" fill-opacity="1" font-family="D2Coding,D2Coding_MSFontService,sans-serif" font-style="oblique" font-variant="normal" font-weight="400" font-stretch="normal" font-size="138" text-anchor="start" direction="ltr" writing-mode="lr-tb" unicode-bidi="normal" text-decoration="none" transform="matrix(1 0 0 1 1797.53 1854)">rich </text><text fill="#747474" fill-opacity="1" font-family="D2Coding,D2Coding_MSFontService,sans-serif" font-style="oblique" font-variant="normal" font-weight="400" font-stretch="normal" font-size="138" text-anchor="start" direction="ltr" writing-mode="lr-tb" unicode-bidi="normal" text-decoration="none" transform="matrix(1 0 0 1 2141.28 1854)">radiko</text><text fill="#747474" fill-opacity="1" font-family="D2Coding,D2Coding_MSFontService,sans-serif" font-style="oblique" font-variant="normal" font-weight="400" font-stretch="normal" font-size="138" text-anchor="start" direction="ltr" writing-mode="lr-tb" unicode-bidi="normal" text-decoration="none" transform="matrix(1 0 0 1 2622.53 1854)">streaming </text><text fill="#747474" fill-opacity="1" font-family="D2Coding,D2Coding_MSFontService,sans-serif" font-style="oblique" font-variant="normal" font-weight="400" font-stretch="normal" font-size="138" text-anchor="start" direction="ltr" writing-mode="lr-tb" unicode-bidi="normal" text-decoration="none" transform="matrix(1 0 0 1 3310.03 1854)">platform</text></g></g></svg>